<svg width="294" height="67" viewBox="0 0 294 67" fill="none" xmlns="http://www.w3.org/2000/svg">
<g clip-path="url(#clip0_15575_12857)">
<path d="M185.171 55.0525V20.8123H194.498V25.8277C196.55 22.2365 200.342 20.0694 205.068 20.0694C212.343 20.0694 216.757 25.0848 216.757 33.1959V55.0528H207.431V35.2393C207.431 30.2859 205.503 27.9329 201.773 27.9329C197.42 27.9329 194.498 31.2766 194.498 36.4155V55.0528H185.171V55.0525ZM167.919 55.9194C156.602 55.9194 149.079 48.4893 149.079 38.0252C149.079 27.5611 156.354 19.9454 166.489 19.9454C175.566 19.9454 182.033 26.1371 182.779 35.3628L159.338 43.7835C161.141 46.6937 164.561 48.3655 169.224 48.3655C172.893 48.3655 176.437 47.4368 179.048 45.6412V53.1332C176.499 54.805 172.271 55.9194 167.919 55.9194ZM157.908 37.2202L173.452 31.5857C172.457 28.7995 169.908 27.1277 166.488 27.1277C161.017 27.1277 157.348 31.3382 157.907 37.2202H157.908ZM130.762 56.0434C117.021 56.0434 107.134 46.4462 107.134 33.4434C107.134 20.4407 117.393 10.7197 131.383 10.7197C136.917 10.7197 142.14 12.1438 145 14.3728V23.0413C142.016 20.3169 137.415 18.707 132.689 18.707C123.052 18.707 116.834 24.6512 116.834 33.4434C116.834 42.2357 122.803 48.118 131.321 48.118C133.497 48.118 135.922 47.6846 137.912 46.8796V37.0346H128.585V29.6045H146.368V51.0279C142.327 54.1857 136.793 56.0434 130.762 56.0434ZM78.2266 64.6497L84.7553 50.6564L71.2627 20.8123H81.3976L89.7296 39.9448L97.999 20.8123H107.45L87.8641 64.6497H78.2266ZM58.0517 55.9194C46.7353 55.9194 39.2119 48.4893 39.2119 38.0252C39.2119 27.5611 46.4868 19.9454 56.6216 19.9454C65.6996 19.9454 72.1659 26.1371 72.912 35.3628L49.4711 43.7835C51.2742 46.6937 54.694 48.3655 59.3574 48.3655C63.0257 48.3655 66.5698 47.4368 69.1813 45.6412V53.1332C66.632 54.805 62.4041 55.9194 58.0517 55.9194ZM48.0411 37.2202L63.5853 31.5857C62.5905 28.7995 60.0412 27.1277 56.6214 27.1277C51.1499 27.1277 47.4813 31.3382 48.0408 37.2202H48.0411ZM0.000244141 55.0525V11.7103H9.4513V27.9946H26.9853V11.7103H36.4364V55.0525H26.9853V36.2915H9.4513V55.0525H0.000244141Z" fill="black"/>
<path d="M254.768 63.8538C254.768 63.8538 234.189 48.0894 231.052 45.7144C229.306 44.3922 227.407 41.2948 227.803 38.8585C228.097 37.0473 229.143 36.1173 230.56 35.6227C234.975 34.082 248.984 29.2439 252.749 28.0341C254.825 27.3668 258.119 27.9774 260.58 29.9886C262.529 31.5816 264.069 33.916 264.089 36.9262C264.134 43.7372 264.494 59.6768 264.494 61.7276C264.494 62.8972 264.003 64.8803 261.698 65.5751C259.455 66.2512 256.664 65.3039 254.768 63.8536V63.8538Z" fill="url(#paint0_linear_15575_12857)"/>
<path d="M260.427 30.1232C262.376 31.7162 263.852 33.9328 263.872 36.9431C263.917 43.754 264.494 59.677 264.494 61.7278C264.494 59.677 264.357 43.4659 264.312 36.655C264.268 29.8441 256.829 26.3043 253.11 27.6485C249.391 28.9928 234.975 34.0824 230.561 35.6229C234.975 34.0822 249.054 29.423 252.819 28.2129C254.894 27.5457 257.966 28.1118 260.427 30.1232H260.427Z" fill="url(#paint1_linear_15575_12857)"/>
<path d="M260.427 30.1232C262.376 31.7162 263.852 33.9328 263.872 36.9431C263.917 43.754 264.494 59.677 264.494 61.7278C264.494 59.677 264.357 43.4659 264.312 36.655C264.268 29.8441 256.829 26.3043 253.11 27.6485C249.391 28.9928 234.975 34.0824 230.561 35.6229C234.975 34.0822 249.054 29.423 252.819 28.2129C254.894 27.5457 257.966 28.1118 260.427 30.1232H260.427Z" fill="#AB81E9"/>
<path d="M254.768 63.8538C254.768 63.8538 234.189 48.0894 231.052 45.7144C229.306 44.3922 227.407 41.2948 227.803 38.8585C228.097 37.0473 229.143 36.1173 230.56 35.6227C234.975 34.082 248.984 29.2439 252.749 28.0341C254.825 27.3668 258.119 27.9774 260.58 29.9886C262.529 31.5816 264.266 33.9396 264.3 36.9497C264.333 39.9143 264.343 44.5899 264.38 49.0983C264.427 54.9675 264.474 60.5548 264.471 61.7276C264.468 62.8972 264.003 64.8803 261.698 65.5751C259.455 66.2512 256.664 65.3039 254.768 63.8536V63.8538Z" fill="url(#paint2_linear_15575_12857)"/>
<path d="M260.566 29.9764C262.516 31.5675 264.059 33.9005 264.082 36.9105C264.134 43.7214 264.51 59.6606 264.511 61.7117C264.509 59.6609 264.356 43.45 264.305 36.6391C264.254 29.8281 256.812 26.2956 253.094 27.6434C249.376 28.9914 234.966 34.0948 230.552 35.6398C234.966 34.0948 248.97 29.2431 252.734 28.0293C254.809 27.3602 258.103 27.9673 260.566 29.9764Z" fill="url(#paint3_radial_15575_12857)"/>
<path d="M260.566 29.9764C262.516 31.5675 264.059 33.9005 264.082 36.9105C264.134 43.7214 264.51 59.6606 264.511 61.7117C264.509 59.6609 264.356 43.45 264.305 36.6391C264.254 29.8281 256.812 26.2956 253.094 27.6434C249.376 28.9914 234.966 34.0948 230.552 35.6398C234.966 34.0948 248.97 29.2431 252.734 28.0293C254.809 27.3602 258.103 27.9673 260.566 29.9764Z" fill="url(#paint4_radial_15575_12857)"/>
<path d="M254.873 27.5309C255.834 27.5309 256.891 27.7444 257.931 28.1482C259.014 28.5688 260.054 29.1892 260.937 29.9416C261.909 30.7699 262.679 31.7348 263.225 32.8097C263.829 33.9994 264.14 35.2936 264.149 36.6563C264.167 39.4872 264.202 43.9818 264.236 48.3286C264.285 54.6034 264.331 60.5301 264.331 61.728C264.331 62.1432 264.264 62.9582 263.818 63.7492C263.36 64.5614 262.631 65.1232 261.651 65.4185C261.176 65.5616 260.658 65.6342 260.111 65.6342C259.242 65.6342 258.286 65.4474 257.346 65.0937C256.461 64.7605 255.604 64.2867 254.868 63.724C254.663 63.5663 234.253 47.9321 231.152 45.5841C230.274 44.9195 229.383 43.8148 228.77 42.6293C228.439 41.9883 228.199 41.3513 228.058 40.7354C227.906 40.068 227.874 39.4455 227.965 38.8851C228.102 38.0476 228.402 37.3844 228.882 36.8577C229.311 36.3884 229.878 36.0352 230.615 35.7779C235.158 34.1929 249.45 29.1461 253.167 27.8028C253.666 27.6222 254.24 27.5306 254.873 27.5306M254.873 27.3669C254.232 27.3669 253.635 27.4594 253.111 27.6487C249.391 28.9929 234.976 34.0826 230.561 35.6231C229.144 36.1177 228.098 37.0474 227.803 38.8589C227.408 41.2951 229.306 44.3925 231.053 45.7148C234.189 48.0897 254.769 63.8542 254.769 63.8542C256.236 64.9769 258.24 65.7982 260.111 65.7982C260.657 65.7982 261.192 65.7281 261.698 65.5755C264.003 64.8806 264.495 62.8975 264.495 61.728C264.495 59.6772 264.358 43.4661 264.313 36.6551C264.274 30.8037 258.779 27.3667 254.873 27.3667L254.873 27.3669Z" fill="url(#paint5_linear_15575_12857)"/>
<path d="M267.967 36.1654C267.967 34.3006 268.678 31.2392 270.35 28.8656C271.29 27.5304 272.475 26.3108 273.703 25.7522C274.658 25.3178 275.115 25.2459 276.248 25.4798C276.248 25.4798 289.973 28.4228 290.81 28.5928C291.647 28.7628 292.56 29.3307 292.681 31.0757C292.803 32.8206 292.343 35.5782 290.39 38.4221C288.437 41.2661 276.544 58.4445 275.05 60.5989C273.557 62.7532 271.314 64.1288 270.04 63.7934C268.424 63.3677 268.079 61.8785 268.091 60.8509C268.115 58.955 267.966 36.1656 267.966 36.1656L267.967 36.1654Z" fill="url(#paint6_linear_15575_12857)"/>
<path d="M270.04 63.4768C268.543 63.0701 268.625 61.9236 268.61 60.8507C268.584 58.8682 268.486 36.1654 268.486 36.1654C268.486 34.3006 269.129 31.601 270.801 29.2274C271.741 27.8921 272.585 26.8824 273.741 26.2178C274.65 25.6949 275.533 25.5721 276.666 25.8061C276.666 25.8061 289.972 28.4228 290.81 28.5928C289.973 28.4228 276.248 25.4798 276.248 25.4798C275.115 25.2459 274.658 25.3178 273.703 25.7522C272.475 26.3108 271.29 27.5304 270.349 28.8656C268.678 31.2392 267.966 34.3006 267.966 36.1654C267.966 36.1654 268.115 58.955 268.091 60.8507C268.079 61.8782 268.424 63.3675 270.04 63.7932C271.314 64.1286 273.556 62.7532 275.05 60.5986C273.556 62.7532 271.311 63.8216 270.04 63.4765L270.04 63.4768Z" fill="url(#paint7_linear_15575_12857)"/>
<path d="M270.04 63.4768C268.543 63.0701 268.625 61.9236 268.61 60.8507C268.584 58.8682 268.486 36.1654 268.486 36.1654C268.486 34.3006 269.129 31.601 270.801 29.2274C271.741 27.8921 272.585 26.8824 273.741 26.2178C274.65 25.6949 275.533 25.5721 276.666 25.8061C276.666 25.8061 289.972 28.4228 290.81 28.5928C289.973 28.4228 276.248 25.4798 276.248 25.4798C275.115 25.2459 274.658 25.3178 273.703 25.7522C272.475 26.3108 271.29 27.5304 270.349 28.8656C268.678 31.2392 267.966 34.3006 267.966 36.1654C267.966 36.1654 268.115 58.955 268.091 60.8507C268.079 61.8782 268.424 63.3675 270.04 63.7932C271.314 64.1286 273.556 62.7532 275.05 60.5986C273.556 62.7532 271.311 63.8216 270.04 63.4765L270.04 63.4768Z" fill="#00BA97"/>
<path d="M268.485 36.1653C268.485 34.3005 269.129 31.6009 270.8 29.2273C271.741 27.892 272.584 26.8823 273.741 26.2177C274.65 25.6948 275.532 25.572 276.665 25.8059C276.665 25.8059 289.972 28.4226 290.809 28.5926C291.646 28.7626 292.559 29.3306 292.681 31.0755C292.802 32.8205 292.343 35.5781 290.389 38.422C288.436 41.266 276.543 58.4444 275.05 60.5988C273.556 62.7531 271.311 64.1383 270.04 63.7933C268.542 63.3866 268.624 61.9235 268.61 60.8508C268.583 58.8683 268.485 36.1655 268.485 36.1655V36.1653Z" fill="url(#paint8_linear_15575_12857)"/>
<path d="M270.04 63.4768C268.543 63.0701 268.625 61.9236 268.61 60.8507C268.584 58.8682 268.486 36.1654 268.486 36.1654C268.486 34.3006 269.129 31.601 270.801 29.2274C271.741 27.8921 272.585 26.8824 273.741 26.2178C274.65 25.6949 275.533 25.5721 276.666 25.8061C276.666 25.8061 289.972 28.4228 290.81 28.5928C289.973 28.4228 276.248 25.4798 276.248 25.4798C275.115 25.2459 274.658 25.3178 273.703 25.7522C272.475 26.3108 271.29 27.5304 270.349 28.8656C268.678 31.2392 267.966 34.3006 267.966 36.1654C267.966 36.1654 268.115 58.955 268.091 60.8507C268.079 61.8782 268.424 63.3675 270.04 63.7932C271.314 64.1286 273.556 62.7532 275.05 60.5986C273.556 62.7532 271.311 63.8216 270.04 63.4765L270.04 63.4768Z" fill="url(#paint9_radial_15575_12857)"/>
<path d="M270.04 63.4768C268.543 63.0701 268.625 61.9236 268.61 60.8507C268.584 58.8682 268.486 36.1654 268.486 36.1654C268.486 34.3006 269.129 31.601 270.801 29.2274C271.741 27.8921 272.585 26.8824 273.741 26.2178C274.65 25.6949 275.533 25.5721 276.666 25.8061C276.666 25.8061 289.972 28.4228 290.81 28.5928C289.973 28.4228 276.248 25.4798 276.248 25.4798C275.115 25.2459 274.658 25.3178 273.703 25.7522C272.475 26.3108 271.29 27.5304 270.349 28.8656C268.678 31.2392 267.966 34.3006 267.966 36.1654C267.966 36.1654 268.115 58.955 268.091 60.8507C268.079 61.8782 268.424 63.3675 270.04 63.7932C271.314 64.1286 273.556 62.7532 275.05 60.5986C273.556 62.7532 271.311 63.8216 270.04 63.4765L270.04 63.4768Z" fill="url(#paint10_radial_15575_12857)"/>
<path d="M275.209 25.3484V25.5317C275.475 25.5317 275.783 25.5708 276.209 25.6588C276.351 25.6893 289.945 28.6041 290.773 28.7722C291.231 28.8653 291.603 29.0655 291.878 29.367C292.237 29.7606 292.446 30.3398 292.498 31.0881C292.546 31.772 292.522 32.8885 292.137 34.3232C291.756 35.7402 291.118 37.1074 290.239 38.3867C288.297 41.214 276.486 58.2751 274.899 60.5628C274.272 61.4673 273.467 62.285 272.633 62.8656C271.832 63.4221 271.058 63.7286 270.453 63.7286C270.321 63.7286 270.198 63.7137 270.087 63.6844C269.417 63.5078 268.922 63.1201 268.618 62.5318C268.325 61.9658 268.269 61.3436 268.274 60.9213C268.297 59.0476 268.151 36.5101 268.149 36.2333C268.149 35.2332 268.342 33.9861 268.678 32.8115C269.086 31.3843 269.696 30.0704 270.441 29.0123C271.478 27.5391 272.695 26.4117 273.778 25.9186C274.33 25.6675 274.722 25.5314 275.209 25.5314V25.3481M275.209 25.3484C274.709 25.3484 274.305 25.4783 273.703 25.7521C272.475 26.3106 271.232 27.5717 270.291 28.907C268.62 31.2806 267.966 34.3692 267.966 36.234C267.966 36.234 268.115 59.0236 268.091 60.9193C268.079 61.9468 268.424 63.4361 270.04 63.8617C270.169 63.8957 270.307 63.9119 270.453 63.9119C271.758 63.9119 273.707 62.6044 275.05 60.6672C276.544 58.5127 288.437 41.3345 290.39 38.4905C292.343 35.6465 292.803 32.8202 292.681 31.0753C292.56 29.3306 291.647 28.7624 290.81 28.5924C289.973 28.4224 276.248 25.4794 276.248 25.4794C275.829 25.3928 275.503 25.3481 275.209 25.3481L275.209 25.3484Z" fill="url(#paint11_linear_15575_12857)"/>
<path d="M226.552 31.0408C226.552 29.7906 227.384 27.9135 228.476 26.6064C228.476 26.6064 244.918 6.86453 246.03 5.52734C247.141 4.19015 249.367 2.46841 251.067 1.75227C252.766 1.03612 253.883 1.20593 254.393 2.31075C254.903 3.41533 259.203 12.8518 259.716 13.9744C260.201 15.0371 260.114 15.9705 259.11 17.9668C257.839 20.4975 254.457 23.4633 252.172 24.297C249.662 25.2128 231.447 31.8353 229.543 32.5258C227.639 33.2158 226.552 32.1178 226.552 31.0408Z" fill="url(#paint12_linear_15575_12857)"/>
<path d="M259.715 13.9742C259.203 12.8513 254.903 3.41509 254.393 2.3105C254.039 1.54302 253.391 1.227 252.46 1.34548C253.284 1.25702 253.794 1.58977 254.141 2.34029C254.651 3.44488 258.797 12.4275 259.294 13.5573C259.695 14.4694 259.701 15.4209 258.773 17.2465C257.55 19.6527 254.091 22.903 251.807 23.7367C249.297 24.6525 230.965 31.3904 229.06 32.0807C227.156 32.7709 226.674 31.8774 226.674 30.8001C226.674 30.0615 226.922 29.1879 227.35 28.3272C226.861 29.2842 226.552 30.2788 226.552 31.0407C226.552 32.1178 227.639 33.2158 229.543 32.5253C231.447 31.835 249.662 25.2126 252.172 24.2966C254.457 23.4629 257.838 20.497 259.11 17.9663C260.114 15.97 260.201 15.0368 259.716 13.974L259.715 13.9742Z" fill="url(#paint13_linear_15575_12857)"/>
<path d="M259.715 13.9742C259.203 12.8513 254.903 3.41509 254.393 2.3105C254.039 1.54302 253.391 1.227 252.46 1.34548C253.284 1.25702 253.794 1.58977 254.141 2.34029C254.651 3.44488 258.797 12.4275 259.294 13.5573C259.695 14.4694 259.701 15.4209 258.773 17.2465C257.55 19.6527 254.091 22.903 251.807 23.7367C249.297 24.6525 230.965 31.3904 229.06 32.0807C227.156 32.7709 226.674 31.8774 226.674 30.8001C226.674 30.0615 226.922 29.1879 227.35 28.3272C226.861 29.2842 226.552 30.2788 226.552 31.0407C226.552 32.1178 227.639 33.2158 229.543 32.5253C231.447 31.835 249.662 25.2126 252.172 24.2966C254.457 23.4629 257.838 20.497 259.11 17.9663C260.114 15.97 260.201 15.0368 259.716 13.974L259.715 13.9742Z" fill="#128414"/>
<path d="M226.674 30.8003C226.674 29.5502 227.384 27.9137 228.476 26.6063C228.476 26.6063 244.919 6.86449 246.03 5.5273C247.141 4.19011 249.368 2.46837 251.067 1.75223C252.767 1.03608 253.631 1.23568 254.141 2.34027C254.651 3.44486 258.798 12.4275 259.294 13.5573C259.695 14.4694 259.701 15.4209 258.774 17.2465C257.551 19.6527 254.092 22.903 251.807 23.7367C249.297 24.6524 230.965 31.3904 229.061 32.0807C227.156 32.7709 226.675 31.8774 226.675 30.8001L226.674 30.8003Z" fill="url(#paint14_linear_15575_12857)"/>
<path d="M259.715 13.9742C259.203 12.8513 254.903 3.41509 254.393 2.3105C254.039 1.54302 253.391 1.227 252.46 1.34548C253.284 1.25702 253.794 1.58977 254.141 2.34029C254.651 3.44488 258.797 12.4275 259.294 13.5573C259.695 14.4694 259.701 15.4209 258.773 17.2465C257.55 19.6527 254.091 22.903 251.807 23.7367C249.297 24.6525 230.965 31.3904 229.06 32.0807C227.156 32.7709 226.674 31.8774 226.674 30.8001C226.674 30.0615 226.922 29.1879 227.35 28.3272C226.861 29.2842 226.552 30.2788 226.552 31.0407C226.552 32.1178 227.639 33.2158 229.543 32.5253C231.447 31.835 249.662 25.2126 252.172 24.2966C254.457 23.4629 257.838 20.497 259.11 17.9663C260.114 15.97 260.201 15.0368 259.716 13.974L259.715 13.9742Z" fill="url(#paint15_radial_15575_12857)"/>
<path d="M259.715 13.9742C259.203 12.8513 254.903 3.41509 254.393 2.3105C254.039 1.54302 253.391 1.227 252.46 1.34548C253.284 1.25702 253.794 1.58977 254.141 2.34029C254.651 3.44488 258.797 12.4275 259.294 13.5573C259.695 14.4694 259.701 15.4209 258.773 17.2465C257.55 19.6527 254.091 22.903 251.807 23.7367C249.297 24.6525 230.965 31.3904 229.06 32.0807C227.156 32.7709 226.674 31.8774 226.674 30.8001C226.674 30.0615 226.922 29.1879 227.35 28.3272C226.861 29.2842 226.552 30.2788 226.552 31.0407C226.552 32.1178 227.639 33.2158 229.543 32.5253C231.447 31.835 249.662 25.2126 252.172 24.2966C254.457 23.4629 257.838 20.497 259.11 17.9663C260.114 15.97 260.201 15.0368 259.716 13.974L259.715 13.9742Z" fill="#128414"/>
<path d="M259.715 13.9742C259.203 12.8513 254.903 3.41509 254.393 2.3105C254.039 1.54302 253.391 1.227 252.46 1.34548C253.284 1.25702 253.794 1.58977 254.141 2.34029C254.651 3.44488 258.797 12.4275 259.294 13.5573C259.695 14.4694 259.701 15.4209 258.773 17.2465C257.55 19.6527 254.091 22.903 251.807 23.7367C249.297 24.6525 230.965 31.3904 229.06 32.0807C227.156 32.7709 226.674 31.8774 226.674 30.8001C226.674 30.0615 226.922 29.1879 227.35 28.3272C226.861 29.2842 226.552 30.2788 226.552 31.0407C226.552 32.1178 227.639 33.2158 229.543 32.5253C231.447 31.835 249.662 25.2126 252.172 24.2966C254.457 23.4629 257.838 20.497 259.11 17.9663C260.114 15.97 260.201 15.0368 259.716 13.974L259.715 13.9742Z" fill="url(#paint16_radial_15575_12857)"/>
<path d="M252.824 1.55046C253.474 1.55046 253.863 1.87241 254.129 2.44854C254.541 3.34114 257.469 9.5995 258.849 12.627C259.172 13.3347 259.409 13.8544 259.507 14.0694C259.748 14.5983 259.819 15.0528 259.744 15.5886C259.662 16.1711 259.403 16.8728 258.905 17.8637C258.605 18.4605 258.178 19.0987 257.634 19.7605C257.117 20.3894 256.523 21.0074 255.868 21.5978C254.556 22.7798 253.18 23.6853 252.094 24.0815C249.682 24.9615 231.449 31.5906 229.465 32.31C229.096 32.4438 228.745 32.5116 228.422 32.5116C227.924 32.5116 227.501 32.3505 227.198 32.0457C226.933 31.7785 226.781 31.4123 226.781 31.0408C226.781 30.4716 226.97 29.7243 227.314 28.9366C227.658 28.1494 228.133 27.3742 228.652 26.7529C228.817 26.5556 245.107 6.99547 246.206 5.67363C246.738 5.03357 247.561 4.27388 248.466 3.58959C249.413 2.87275 250.368 2.29502 251.156 1.96342C251.806 1.68933 252.367 1.55046 252.824 1.55046M252.824 1.32129C252.332 1.32129 251.746 1.46589 251.067 1.75235C249.367 2.4685 247.141 4.19023 246.029 5.52742C244.918 6.86462 228.476 26.6065 228.476 26.6065C227.384 27.9136 226.552 29.7905 226.552 31.0408C226.552 31.8844 227.219 32.7408 228.423 32.7408C228.756 32.7408 229.13 32.6753 229.543 32.5256C231.447 31.8354 249.662 25.2129 252.172 24.2971C254.457 23.4634 257.838 20.4975 259.11 17.9669C260.114 15.9706 260.201 15.0374 259.716 13.9745C259.204 12.8516 254.903 3.41542 254.393 2.31083C254.087 1.64762 253.562 1.32152 252.824 1.32152V1.32129Z" fill="url(#paint17_linear_15575_12857)"/>
<path d="M258.747 2.46538C258.423 1.76913 258.375 1.58617 258.558 1.3266C258.741 1.06703 258.812 0.760141 259.715 0.937244C260.618 1.11435 262.562 1.88247 265.89 4.3529C269.218 6.82333 283.879 17.7248 286.192 19.4404C288.505 21.156 290.187 23.0102 290.516 23.8043C290.783 24.4259 290.659 24.558 290.475 24.777C290.321 24.9611 290.221 25.1526 289.687 25.0983C289.687 25.0983 287.782 24.6832 285.529 24.1596C283.276 23.6359 277.576 22.3277 274.818 21.6856C272.06 21.0434 268.965 18.732 267.872 17.8618C267.147 17.2839 266.03 16.3819 264.882 15.0032C264.419 14.4473 264.105 13.8966 263.695 12.9989C262.446 10.2698 258.747 2.4656 258.747 2.4656L258.747 2.46538Z" fill="url(#paint18_radial_15575_12857)"/>
<path d="M290.324 23.5149C290.418 23.784 290.473 24.2754 290.335 24.407C290.209 24.5278 289.979 24.4816 289.559 24.3838C289.559 24.3838 287.955 23.9345 285.702 23.4108C283.449 22.8872 277.745 21.5046 274.987 20.8624C272.229 20.2203 269.5 18.0259 268.407 17.1557C267.682 16.5777 266.81 15.8817 265.662 14.503C265.199 13.9471 264.505 12.6488 264.077 11.759C262.77 9.03801 259.269 2.08999 259.269 2.08999C258.945 1.39375 259.003 1.19276 259.159 1.05937C259.237 0.993349 259.409 0.976675 259.833 1.049C260.712 1.19884 262.449 1.84078 265.582 4.12667C262.442 1.83493 260.589 1.10871 259.715 0.937244C258.812 0.760141 258.741 1.06703 258.558 1.3266C258.375 1.58617 258.423 1.76913 258.747 2.46538C258.747 2.46538 262.446 10.2696 263.695 12.9987C264.106 13.8964 264.419 14.4471 264.882 15.003C266.03 16.3817 267.147 17.2837 267.873 17.8616C268.965 18.7318 272.061 21.0432 274.818 21.6853C277.576 22.3275 283.276 23.6357 285.529 24.1594C287.782 24.683 289.687 25.098 289.687 25.098C290.221 25.1524 290.321 24.9608 290.476 24.7767C290.66 24.5575 290.59 24.1364 290.324 23.5147L290.324 23.5149Z" fill="url(#paint19_radial_15575_12857)"/>
<path d="M290.324 23.5149C290.418 23.784 290.473 24.2754 290.335 24.407C290.209 24.5278 289.979 24.4816 289.559 24.3838C289.559 24.3838 287.955 23.9345 285.702 23.4108C283.449 22.8872 277.745 21.5046 274.987 20.8624C272.229 20.2203 269.5 18.0259 268.407 17.1557C267.682 16.5777 266.81 15.8817 265.662 14.503C265.199 13.9471 264.505 12.6488 264.077 11.759C262.77 9.03801 259.269 2.08999 259.269 2.08999C258.945 1.39375 259.003 1.19276 259.159 1.05937C259.237 0.993349 259.409 0.976675 259.833 1.049C260.712 1.19884 262.449 1.84078 265.582 4.12667C262.442 1.83493 260.589 1.10871 259.715 0.937244C258.812 0.760141 258.741 1.06703 258.558 1.3266C258.375 1.58617 258.423 1.76913 258.747 2.46538C258.747 2.46538 262.446 10.2696 263.695 12.9987C264.106 13.8964 264.419 14.4471 264.882 15.003C266.03 16.3817 267.147 17.2837 267.873 17.8616C268.965 18.7318 272.061 21.0432 274.818 21.6853C277.576 22.3275 283.276 23.6357 285.529 24.1594C287.782 24.683 289.687 25.098 289.687 25.098C290.221 25.1524 290.321 24.9608 290.476 24.7767C290.66 24.5575 290.59 24.1364 290.324 23.5147L290.324 23.5149Z" fill="#0079FF"/>
<g filter="url(#filter0_i_15575_12857)">
<path d="M259.012 2.15978C258.687 1.46353 258.702 1.15552 258.859 1.02213C258.936 0.956107 259.421 0.903832 259.84 0.998017C260.752 1.20283 262.562 1.8824 265.89 4.35283C269.218 6.82326 283.784 17.7691 286.097 19.4847C288.411 21.2003 290.03 22.9618 290.359 23.7558C290.454 24.0249 290.618 24.4479 290.48 24.5795C290.354 24.7003 290.199 24.7181 289.78 24.6203C289.78 24.6203 287.859 24.1176 285.606 23.594C283.353 23.0703 277.736 21.7242 274.978 21.0821C272.22 20.4399 269.446 18.2245 268.354 17.3544C267.628 16.7764 266.641 16.0272 265.494 14.6485C265.031 14.0926 264.477 13.546 264.066 12.6483C262.817 9.91918 259.011 2.16 259.011 2.16L259.012 2.15978Z" fill="url(#paint20_linear_15575_12857)"/>
<path d="M259.012 2.15978C258.687 1.46353 258.702 1.15552 258.859 1.02213C258.936 0.956107 259.421 0.903832 259.84 0.998017C260.752 1.20283 262.562 1.8824 265.89 4.35283C269.218 6.82326 283.784 17.7691 286.097 19.4847C288.411 21.2003 290.03 22.9618 290.359 23.7558C290.454 24.0249 290.618 24.4479 290.48 24.5795C290.354 24.7003 290.199 24.7181 289.78 24.6203C289.78 24.6203 287.859 24.1176 285.606 23.594C283.353 23.0703 277.736 21.7242 274.978 21.0821C272.22 20.4399 269.446 18.2245 268.354 17.3544C267.628 16.7764 266.641 16.0272 265.494 14.6485C265.031 14.0926 264.477 13.546 264.066 12.6483C262.817 9.91918 259.011 2.16 259.011 2.16L259.012 2.15978Z" fill="url(#paint21_linear_15575_12857)" fill-opacity="0.2"/>
</g>
<path d="M290.188 23.515C290.283 23.784 290.337 24.2755 290.2 24.4071C290.073 24.5278 289.843 24.4816 289.424 24.3838C289.424 24.3838 287.819 23.9346 285.566 23.4109C283.313 22.8873 277.609 21.5047 274.851 20.8625C272.094 20.2204 269.364 18.0259 268.272 17.1557C267.546 16.5778 266.719 15.7466 265.571 14.3678C265.109 13.812 264.437 12.6489 264.009 11.7591C262.702 9.03808 259.224 2.09006 259.224 2.09006C258.899 1.39381 258.867 1.19282 259.023 1.05943C259.101 0.993415 259.274 0.976741 259.697 1.04907C260.576 1.19891 262.313 1.84085 265.447 4.12674C262.306 1.83499 260.456 1.09526 259.579 0.93731C258.788 0.794681 258.732 1.11712 258.539 1.38638C258.392 1.59345 258.423 1.76942 258.747 2.46567C258.747 2.46567 262.362 10.0861 263.611 12.8151C264.021 13.7128 264.42 14.4472 264.882 15.003C266.03 16.3818 267.051 17.192 267.776 17.77C268.869 18.6402 271.925 20.9982 274.682 21.6403C277.44 22.2825 283.141 23.5907 285.394 24.1144C287.647 24.638 289.551 25.0756 289.551 25.0756C290.086 25.1299 290.186 24.9609 290.34 24.7768C290.524 24.5576 290.454 24.1364 290.188 23.5148L290.188 23.515Z" fill="url(#paint22_radial_15575_12857)"/>
<path d="M290.188 23.515C290.283 23.784 290.337 24.2755 290.2 24.4071C290.073 24.5278 289.843 24.4816 289.423 24.3838C289.423 24.3838 287.819 23.9346 285.566 23.4109C283.313 22.8873 277.609 21.5047 274.851 20.8625C272.094 20.2204 269.364 18.0259 268.272 17.1557C267.546 16.5778 266.719 15.7466 265.571 14.3678C265.109 13.812 264.437 12.6489 264.009 11.7591C262.702 9.03808 259.224 2.09006 259.224 2.09006C258.899 1.39381 258.867 1.19282 259.023 1.05943C259.101 0.993415 259.274 0.976741 259.697 1.04907C260.576 1.19891 262.313 1.84085 265.447 4.12674C262.306 1.83499 260.456 1.09526 259.579 0.93731C258.788 0.794681 258.732 1.11712 258.539 1.38638C258.392 1.59345 258.423 1.76942 258.747 2.46567C258.747 2.46567 262.362 10.0861 263.611 12.8151C264.021 13.7128 264.42 14.4472 264.882 15.003C266.03 16.3818 267.051 17.192 267.776 17.77C268.869 18.6402 271.925 20.9982 274.682 21.6403C277.44 22.2825 283.141 23.5907 285.394 24.1144C287.647 24.638 289.551 25.0756 289.551 25.0756C290.085 25.1299 290.282 24.8865 290.437 24.7024C290.621 24.4832 290.52 24.1176 290.188 23.5148L290.188 23.515Z" fill="#00E1FF"/>
<path d="M290.188 23.515C290.283 23.784 290.337 24.2755 290.2 24.4071C290.073 24.5278 289.843 24.4816 289.424 24.3838C289.424 24.3838 287.819 23.9346 285.566 23.4109C283.313 22.8873 277.609 21.5047 274.851 20.8625C272.094 20.2204 269.364 18.0259 268.272 17.1557C267.546 16.5778 266.719 15.7466 265.571 14.3678C265.109 13.812 264.437 12.6489 264.009 11.7591C262.702 9.03808 259.224 2.09006 259.224 2.09006C258.899 1.39381 258.867 1.19282 259.023 1.05943C259.101 0.993415 259.274 0.976741 259.697 1.04907C260.576 1.19891 262.313 1.84085 265.447 4.12674C262.306 1.83499 260.456 1.09526 259.579 0.93731C258.788 0.794681 258.732 1.11712 258.539 1.38638C258.392 1.59345 258.423 1.76942 258.747 2.46567C258.747 2.46567 262.362 10.0861 263.611 12.8151C264.021 13.7128 264.42 14.4472 264.882 15.003C266.03 16.3818 267.051 17.192 267.776 17.77C268.869 18.6402 271.925 20.9982 274.682 21.6403C277.44 22.2825 283.141 23.5907 285.394 24.1144C287.647 24.638 289.551 25.0756 289.551 25.0756C290.086 25.1299 290.186 24.9609 290.34 24.7768C290.524 24.5576 290.454 24.1364 290.188 23.5148L290.188 23.515Z" fill="#00E1FF"/>
<path d="M290.188 23.515C290.283 23.784 290.337 24.2755 290.2 24.4071C290.073 24.5278 289.843 24.4816 289.424 24.3838C289.424 24.3838 287.819 23.9346 285.566 23.4109C283.313 22.8873 277.609 21.5047 274.851 20.8625C272.094 20.2204 269.364 18.0259 268.272 17.1557C267.546 16.5778 266.719 15.7466 265.571 14.3678C265.109 13.812 264.437 12.6489 264.009 11.7591C262.702 9.03808 259.224 2.09006 259.224 2.09006C258.899 1.39381 258.867 1.19282 259.023 1.05943C259.101 0.993415 259.274 0.976741 259.697 1.04907C260.576 1.19891 262.313 1.84085 265.447 4.12674C262.306 1.83499 260.456 1.09526 259.579 0.93731C258.788 0.794681 258.732 1.11712 258.539 1.38638C258.392 1.59345 258.423 1.76942 258.747 2.46567C258.747 2.46567 262.362 10.0861 263.611 12.8151C264.021 13.7128 264.42 14.4472 264.882 15.003C266.03 16.3818 267.051 17.192 267.776 17.77C268.869 18.6402 271.925 20.9982 274.682 21.6403C277.44 22.2825 283.141 23.5907 285.394 24.1144C287.647 24.638 289.551 25.0756 289.551 25.0756C290.086 25.1299 290.186 24.9609 290.34 24.7768C290.524 24.5576 290.454 24.1364 290.188 23.5148L290.188 23.515Z" fill="url(#paint23_radial_15575_12857)"/>
<path d="M290.188 23.515C290.283 23.784 290.337 24.2755 290.2 24.4071C290.073 24.5278 289.843 24.4816 289.424 24.3838C289.424 24.3838 287.819 23.9346 285.566 23.4109C283.313 22.8873 277.609 21.5047 274.851 20.8625C272.094 20.2204 269.364 18.0259 268.272 17.1557C267.546 16.5778 266.719 15.7466 265.571 14.3678C265.109 13.812 264.437 12.6489 264.009 11.7591C262.702 9.03808 259.224 2.09006 259.224 2.09006C258.899 1.39381 258.867 1.19282 259.023 1.05943C259.101 0.993415 259.274 0.976741 259.697 1.04907C260.576 1.19891 262.313 1.84085 265.447 4.12674C262.306 1.83499 260.456 1.09526 259.579 0.93731C258.788 0.794681 258.732 1.11712 258.539 1.38638C258.392 1.59345 258.423 1.76942 258.747 2.46567C258.747 2.46567 262.362 10.0861 263.611 12.8151C264.021 13.7128 264.42 14.4472 264.882 15.003C266.03 16.3818 267.051 17.192 267.776 17.77C268.869 18.6402 271.925 20.9982 274.682 21.6403C277.44 22.2825 283.141 23.5907 285.394 24.1144C287.647 24.638 289.551 25.0756 289.551 25.0756C290.086 25.1299 290.186 24.9609 290.34 24.7768C290.701 24.3998 290.454 24.1364 290.188 23.5148L290.188 23.515Z" fill="url(#paint24_linear_15575_12857)" fill-opacity="0.7"/>
<path d="M290.188 23.515C290.283 23.784 290.337 24.2755 290.2 24.4071C290.073 24.5278 289.843 24.4816 289.424 24.3838C289.424 24.3838 287.819 23.9346 285.566 23.4109C283.313 22.8873 277.609 21.5047 274.851 20.8625C272.094 20.2204 269.364 18.0259 268.272 17.1557C267.546 16.5778 266.719 15.7466 265.571 14.3678C265.109 13.812 264.437 12.6489 264.009 11.7591C262.702 9.03808 259.224 2.09006 259.224 2.09006C258.899 1.39381 258.867 1.19282 259.023 1.05943C259.101 0.993415 259.274 0.976741 259.697 1.04907C260.576 1.19891 262.313 1.84085 265.447 4.12674C262.306 1.83499 260.456 1.09526 259.579 0.93731C258.788 0.794681 258.732 1.11712 258.539 1.38638C258.392 1.59345 258.423 1.76942 258.747 2.46567C258.747 2.46567 262.362 10.0861 263.611 12.8151C264.021 13.7128 264.42 14.4472 264.882 15.003C266.03 16.3818 267.051 17.192 267.776 17.77C268.869 18.6402 271.925 20.9982 274.682 21.6403C277.44 22.2825 283.141 23.5907 285.394 24.1144C287.647 24.638 289.551 25.0756 289.551 25.0756C290.086 25.1299 290.186 24.9609 290.34 24.7768C290.524 24.5576 290.454 24.1364 290.188 23.5148L290.188 23.515Z" fill="url(#paint25_radial_15575_12857)"/>
<path d="M290.188 23.515C290.283 23.784 290.337 24.2755 290.2 24.4071C290.073 24.5278 289.843 24.4816 289.424 24.3838C289.424 24.3838 287.819 23.9346 285.566 23.4109C283.313 22.8873 277.609 21.5047 274.851 20.8625C272.094 20.2204 269.364 18.0259 268.272 17.1557C267.546 16.5778 266.719 15.7466 265.571 14.3678C265.109 13.812 264.437 12.6489 264.009 11.7591C262.702 9.03808 259.224 2.09006 259.224 2.09006C258.899 1.39381 258.867 1.19282 259.023 1.05943C259.101 0.993415 259.274 0.976741 259.697 1.04907C260.576 1.19891 262.313 1.84085 265.447 4.12674C262.306 1.83499 260.456 1.09526 259.579 0.93731C258.788 0.794681 258.732 1.11712 258.539 1.38638C258.392 1.59345 258.423 1.76942 258.747 2.46567C258.747 2.46567 262.362 10.0861 263.611 12.8151C264.021 13.7128 264.42 14.4472 264.882 15.003C266.03 16.3818 267.051 17.192 267.776 17.77C268.869 18.6402 271.925 20.9982 274.682 21.6403C277.44 22.2825 283.141 23.5907 285.394 24.1144C287.647 24.638 289.551 25.0756 289.551 25.0756C290.086 25.1299 290.186 24.9609 290.34 24.7768C290.524 24.5576 290.454 24.1364 290.188 23.5148L290.188 23.515Z" fill="url(#paint26_radial_15575_12857)"/>
<path d="M290.188 23.515C290.283 23.784 290.337 24.2755 290.2 24.4071C290.073 24.5278 289.843 24.4816 289.424 24.3838C289.424 24.3838 287.819 23.9346 285.566 23.4109C283.313 22.8873 277.609 21.5047 274.851 20.8625C272.094 20.2204 269.364 18.0259 268.272 17.1557C267.546 16.5778 266.719 15.7466 265.571 14.3678C265.109 13.812 264.437 12.6489 264.009 11.7591C262.702 9.03808 259.224 2.09006 259.224 2.09006C258.899 1.39381 258.867 1.19282 259.023 1.05943C259.101 0.993415 259.274 0.976741 259.697 1.04907C260.576 1.19891 262.313 1.84085 265.447 4.12674C262.306 1.83499 260.456 1.09526 259.579 0.93731C258.788 0.794681 258.732 1.11712 258.539 1.38638C258.392 1.59345 258.423 1.76942 258.747 2.46567C258.747 2.46567 262.362 10.0861 263.611 12.8151C264.021 13.7128 264.42 14.4472 264.882 15.003C266.03 16.3818 267.051 17.192 267.776 17.77C268.869 18.6402 271.925 20.9982 274.682 21.6403C277.44 22.2825 283.141 23.5907 285.394 24.1144C287.647 24.638 289.551 25.0756 289.551 25.0756C290.086 25.1299 290.186 24.9609 290.34 24.7768C290.524 24.5576 290.454 24.1364 290.188 23.5148L290.188 23.515Z" fill="url(#paint27_radial_15575_12857)"/>
<path d="M290.188 23.515C290.283 23.784 290.337 24.2755 290.2 24.4071C290.073 24.5278 289.843 24.4816 289.424 24.3838C289.424 24.3838 287.819 23.9346 285.566 23.4109C283.313 22.8873 277.609 21.5047 274.851 20.8625C272.094 20.2204 269.364 18.0259 268.272 17.1557C267.546 16.5778 266.719 15.7466 265.571 14.3678C265.109 13.812 264.437 12.6489 264.009 11.7591C262.702 9.03808 259.224 2.09006 259.224 2.09006C258.899 1.39381 258.867 1.19282 259.023 1.05943C259.101 0.993415 259.274 0.976741 259.697 1.04907C260.576 1.19891 262.313 1.84085 265.447 4.12674C262.306 1.83499 260.456 1.09526 259.579 0.93731C258.788 0.794681 258.732 1.11712 258.539 1.38638C258.392 1.59345 258.423 1.76942 258.747 2.46567C258.747 2.46567 262.362 10.0861 263.611 12.8151C264.021 13.7128 264.42 14.4472 264.882 15.003C266.03 16.3818 267.051 17.192 267.776 17.77C268.869 18.6402 271.925 20.9982 274.682 21.6403C277.44 22.2825 283.141 23.5907 285.394 24.1144C287.647 24.638 289.551 25.0756 289.551 25.0756C290.086 25.1299 290.186 24.9609 290.34 24.7768C290.524 24.5576 290.454 24.1364 290.188 23.5148L290.188 23.515Z" fill="url(#paint28_radial_15575_12857)"/>
<path d="M290.263 23.5511C290.358 23.8202 290.412 24.3116 290.274 24.4432C290.148 24.564 289.918 24.5178 289.498 24.42C289.498 24.42 287.894 23.9707 285.641 23.447C283.388 22.9234 277.684 21.5408 274.926 20.8986C272.169 20.2565 269.439 18.0621 268.347 17.1919C267.621 16.6139 266.794 15.7827 265.646 14.404C265.184 13.8481 264.512 12.685 264.084 11.7952C262.777 9.07421 259.299 2.12619 259.299 2.12619C258.974 1.42994 258.942 1.22896 259.098 1.09557C259.176 1.02955 259.349 1.01287 259.772 1.0852C260.651 1.23504 262.388 1.87698 265.522 4.16287C262.381 1.87112 260.531 1.13139 259.654 0.973443C258.863 0.830814 258.807 1.15325 258.615 1.42251C258.467 1.62958 258.498 1.80556 258.822 2.5018C258.822 2.5018 262.437 10.1222 263.686 12.8513C264.097 13.749 264.495 14.4833 264.958 15.0392C266.105 16.4179 267.126 17.2282 267.851 17.8061C268.944 18.6763 272 21.0343 274.757 21.6765C277.515 22.3186 283.216 23.6268 285.469 24.1505C287.722 24.6741 289.627 25.1117 289.627 25.1117C290.161 25.166 290.261 24.997 290.415 24.8129C290.599 24.5937 290.53 24.1726 290.263 23.5509V23.5511Z" fill="url(#paint29_radial_15575_12857)"/>
<path d="M259.254 1.06502C259.371 1.06502 259.514 1.08147 259.68 1.11414C260.061 1.18872 260.74 1.39354 261.81 1.94536C262.968 2.54201 264.305 3.40071 265.782 4.49758C267.385 5.6875 271.68 8.87963 275.833 11.967C280.284 15.2752 284.886 18.6958 286.085 19.5851C287.429 20.5824 288.395 21.4995 288.969 22.0932C289.674 22.8237 290.191 23.4893 290.35 23.8732L290.35 23.8741L290.351 23.875C290.458 24.124 290.502 24.2993 290.487 24.4108C290.476 24.4929 290.446 24.5554 290.358 24.6595L290.35 24.6698C290.335 24.6867 290.322 24.7034 290.308 24.7203C290.199 24.8548 290.084 24.8446 289.82 24.8446C289.777 24.8446 289.729 24.8421 289.678 24.8372C289.319 24.7679 287.712 24.4816 285.57 23.9839C284.557 23.7484 283.017 23.2848 281.199 22.8659C278.915 22.3398 276.376 21.8634 274.859 21.5098C273.689 21.2374 272.329 20.6304 270.815 19.7052C269.55 18.9324 268.498 18.1302 267.985 17.7208C267.115 17.0282 266.173 16.1825 265.097 14.8896C264.659 14.3576 264.33 13.82 263.904 12.8888C262.671 10.1948 258.961 2.49492 258.91 2.38879C258.575 1.66934 258.593 1.59092 258.706 1.4305C258.728 1.39872 258.748 1.36718 258.768 1.33699C258.877 1.16732 258.943 1.06502 259.254 1.06502ZM259.254 0.884766C258.778 0.884766 258.704 1.12068 258.558 1.32662C258.375 1.58619 258.423 1.76915 258.747 2.4654C258.747 2.4654 262.446 10.2696 263.695 12.9987C264.106 13.8964 264.367 14.5122 264.83 15.068C265.978 16.4468 267.106 17.3545 267.832 17.9324C268.924 18.8026 272.043 21.16 274.801 21.8022C277.558 22.4443 283.276 23.6357 285.529 24.1594C287.782 24.683 289.687 25.0981 289.687 25.0981C289.75 25.1044 289.807 25.1073 289.858 25.1073C290.246 25.1073 290.34 24.939 290.476 24.7765C290.66 24.5575 290.783 24.4255 290.517 23.8038C290.187 23.0098 288.506 21.1556 286.192 19.44C283.879 17.7244 269.218 6.8229 265.89 4.35247C262.562 1.88249 260.618 1.11414 259.715 0.937266C259.529 0.900763 259.378 0.884766 259.254 0.884766Z" fill="url(#paint30_linear_15575_12857)"/>
<path d="M259.254 1.06502C259.371 1.06502 259.514 1.08147 259.68 1.11414C260.061 1.18872 260.74 1.39354 261.81 1.94536C262.968 2.54201 264.305 3.40071 265.782 4.49758C267.385 5.6875 271.68 8.87963 275.833 11.967C280.284 15.2752 284.886 18.6958 286.085 19.5851C287.429 20.5824 288.395 21.4995 288.969 22.0932C289.674 22.8237 290.191 23.4893 290.35 23.8732L290.35 23.8741L290.351 23.875C290.458 24.124 290.502 24.2993 290.487 24.4108C290.476 24.4929 290.446 24.5554 290.358 24.6595L290.35 24.6698C290.335 24.6867 290.322 24.7034 290.308 24.7203C290.199 24.8548 290.084 24.8446 289.82 24.8446C289.777 24.8446 289.729 24.8421 289.678 24.8372C289.319 24.7679 287.712 24.4816 285.57 23.9839C284.557 23.7484 283.017 23.2848 281.199 22.8659C278.915 22.3398 276.376 21.8634 274.859 21.5098C273.689 21.2374 272.329 20.6304 270.815 19.7052C269.55 18.9324 268.498 18.1302 267.985 17.7208C267.115 17.0282 266.173 16.1825 265.097 14.8896C264.659 14.3576 264.33 13.82 263.904 12.8888C262.671 10.1948 258.961 2.49492 258.91 2.38879C258.575 1.66934 258.593 1.59092 258.706 1.4305C258.728 1.39872 258.748 1.36718 258.768 1.33699C258.877 1.16732 258.943 1.06502 259.254 1.06502ZM259.254 0.884766C258.778 0.884766 258.704 1.12068 258.558 1.32662C258.375 1.58619 258.423 1.76915 258.747 2.4654C258.747 2.4654 262.446 10.2696 263.695 12.9987C264.106 13.8964 264.367 14.5122 264.83 15.068C265.978 16.4468 267.106 17.3545 267.832 17.9324C268.924 18.8026 272.043 21.16 274.801 21.8022C277.558 22.4443 283.276 23.6357 285.529 24.1594C287.782 24.683 289.687 25.0981 289.687 25.0981C289.75 25.1044 289.807 25.1073 289.858 25.1073C290.246 25.1073 290.34 24.939 290.476 24.7765C290.66 24.5575 290.783 24.4255 290.517 23.8038C290.187 23.0098 288.506 21.1556 286.192 19.44C283.879 17.7244 269.218 6.8229 265.89 4.35247C262.562 1.88249 260.618 1.11414 259.715 0.937266C259.529 0.900763 259.378 0.884766 259.254 0.884766Z" fill="url(#paint31_linear_15575_12857)"/>
<path d="M259.251 1.0619C259.369 1.0619 259.513 1.07846 259.68 1.11136C260.064 1.18647 260.747 1.39272 261.825 1.94842C262.991 2.54926 264.337 3.414 265.825 4.51858C267.439 5.71687 271.764 8.93145 275.947 12.0405C280.428 15.3719 285.063 18.8166 286.27 19.7122C287.624 20.7165 288.597 21.64 289.174 22.2379C289.885 22.9735 290.405 23.6438 290.565 24.0305L290.566 24.0314L290.566 24.0323C290.674 24.283 290.62 24.39 290.605 24.5023C290.566 24.584 290.551 24.6389 290.463 24.7437L290.454 24.7542C290.44 24.7712 290.426 24.788 290.413 24.805C290.303 24.9405 290.237 25.0224 289.972 25.0224C289.928 25.0224 289.88 25.0199 289.828 25.0149C289.673 24.9811 287.909 24.6431 285.752 24.1419C284.732 23.9048 283.002 23.5061 281.171 23.0843C278.871 22.5544 276.348 22.107 274.82 21.751C273.642 21.4766 272.272 20.8654 270.747 19.9337C269.473 19.1554 268.414 18.3476 267.897 17.9353C267.021 17.2378 265.996 16.3844 264.912 15.0824C264.477 14.5601 264.171 14.0425 263.742 13.1047C262.501 10.3918 258.955 2.50184 258.905 2.39497C258.567 1.67046 258.585 1.59149 258.699 1.42994C258.721 1.39794 258.742 1.36618 258.761 1.33577C258.871 1.16491 258.938 1.0619 259.251 1.0619ZM259.251 0.880371C258.772 0.880371 258.696 1.11794 258.55 1.32533C258.366 1.58673 258.414 1.77098 258.741 2.47212C258.741 2.47212 262.332 10.4798 263.59 13.2281C264.004 14.1321 264.32 14.6866 264.786 15.2464C265.942 16.6349 267.066 17.5432 267.797 18.1252C268.897 19.0015 272.014 21.3291 274.791 21.9758C277.568 22.6225 283.442 23.7913 285.711 24.3186C287.98 24.846 289.8 25.1944 289.8 25.1944C289.863 25.2007 289.92 25.2037 289.972 25.2037C290.362 25.2037 290.456 25.0342 290.593 24.8706C290.779 24.65 290.86 24.4647 290.689 23.9621C290.358 23.1625 288.664 21.2953 286.334 19.5676C284.005 17.8399 269.285 6.86025 265.934 4.37245C262.582 1.88511 260.624 1.11136 259.715 0.93324C259.527 0.896481 259.376 0.880371 259.251 0.880371Z" fill="url(#paint32_linear_15575_12857)"/>
</g>
<defs>
<filter id="filter0_i_15575_12857" x="258.751" y="0.946777" width="31.7822" height="23.7363" filterUnits="userSpaceOnUse" color-interpolation-filters="sRGB">
<feFlood flood-opacity="0" result="BackgroundImageFix"/>
<feBlend mode="normal" in="SourceGraphic" in2="BackgroundImageFix" result="shape"/>
<feColorMatrix in="SourceAlpha" type="matrix" values="0 0 0 0 0 0 0 0 0 0 0 0 0 0 0 0 0 0 127 0" result="hardAlpha"/>
<feOffset/>
<feGaussianBlur stdDeviation="0.651055"/>
<feComposite in2="hardAlpha" operator="arithmetic" k2="-1" k3="1"/>
<feColorMatrix type="matrix" values="0 0 0 0 0.958383 0 0 0 0 0.998042 0 0 0 0 1 0 0 0 1 0"/>
<feBlend mode="normal" in2="shape" result="effect1_innerShadow_15575_12857"/>
</filter>
<linearGradient id="paint0_linear_15575_12857" x1="237.16" y1="31.9043" x2="267.45" y2="54.0673" gradientUnits="userSpaceOnUse">
<stop stop-color="#FDA1FF"/>
<stop offset="1" stop-color="#97C5FF"/>
</linearGradient>
<linearGradient id="paint1_linear_15575_12857" x1="263.056" y1="22.8647" x2="256.882" y2="33.1269" gradientUnits="userSpaceOnUse">
<stop offset="0.49" stop-color="#B78EFA"/>
<stop offset="1" stop-color="#8F6CCD"/>
</linearGradient>
<linearGradient id="paint2_linear_15575_12857" x1="243.06" y1="32.8637" x2="261.651" y2="65.4674" gradientUnits="userSpaceOnUse">
<stop offset="0.2" stop-color="#FDA1FF"/>
<stop offset="0.3" stop-color="#F3A4FF"/>
<stop offset="0.48" stop-color="#D9ADFF"/>
<stop offset="0.71" stop-color="#AFBCFF"/>
<stop offset="0.83" stop-color="#97C5FF"/>
</linearGradient>
<radialGradient id="paint3_radial_15575_12857" cx="0" cy="0" r="1" gradientUnits="userSpaceOnUse" gradientTransform="translate(262.504 31.6042) rotate(53.1) scale(3.89153 0.233492)">
<stop stop-color="white"/>
<stop offset="1" stop-color="white" stop-opacity="0"/>
</radialGradient>
<radialGradient id="paint4_radial_15575_12857" cx="0" cy="0" r="1" gradientUnits="userSpaceOnUse" gradientTransform="translate(262.348 31.713) rotate(53.1) scale(3.89153 1.08963)">
<stop stop-color="white"/>
<stop offset="1" stop-color="white" stop-opacity="0"/>
</radialGradient>
<linearGradient id="paint5_linear_15575_12857" x1="243.974" y1="30.4151" x2="255.158" y2="70.9869" gradientUnits="userSpaceOnUse">
<stop stop-color="#EEBEFF"/>
<stop offset="1" stop-color="#79EDFF"/>
</linearGradient>
<linearGradient id="paint6_linear_15575_12857" x1="281.157" y1="30.2275" x2="274.679" y2="58.821" gradientUnits="userSpaceOnUse">
<stop stop-color="#00B99A"/>
<stop offset="1" stop-color="#009CBD"/>
</linearGradient>
<linearGradient id="paint7_linear_15575_12857" x1="280.666" y1="27.5707" x2="269.512" y2="61.9713" gradientUnits="userSpaceOnUse">
<stop offset="0.01" stop-color="#00CC9E"/>
<stop offset="0.22" stop-color="#00884A"/>
<stop offset="0.31" stop-color="#008D64"/>
<stop offset="0.55" stop-color="#009A9D"/>
<stop offset="0.75" stop-color="#00A3C7"/>
<stop offset="0.91" stop-color="#00A8E1"/>
<stop offset="1" stop-color="#00ABEB"/>
</linearGradient>
<linearGradient id="paint8_linear_15575_12857" x1="273.019" y1="28.7785" x2="282.22" y2="49.9982" gradientUnits="userSpaceOnUse">
<stop stop-color="#3CE6AC"/>
<stop offset="1" stop-color="#00E3FF"/>
</linearGradient>
<radialGradient id="paint9_radial_15575_12857" cx="0" cy="0" r="1" gradientUnits="userSpaceOnUse" gradientTransform="translate(275.263 25.5552) scale(6.38445)">
<stop offset="0.01" stop-color="white"/>
<stop offset="1" stop-color="white" stop-opacity="0"/>
</radialGradient>
<radialGradient id="paint10_radial_15575_12857" cx="0" cy="0" r="1" gradientUnits="userSpaceOnUse" gradientTransform="translate(274.397 26.0991) scale(1.59783)">
<stop stop-color="white"/>
<stop offset="1" stop-color="white" stop-opacity="0"/>
</radialGradient>
<linearGradient id="paint11_linear_15575_12857" x1="267.966" y1="44.6303" x2="292.699" y2="44.6303" gradientUnits="userSpaceOnUse">
<stop stop-color="#00E4FF"/>
<stop offset="1" stop-color="#00E3F7"/>
</linearGradient>
<linearGradient id="paint12_linear_15575_12857" x1="237.678" y1="6.77126" x2="244.327" y2="26.0818" gradientUnits="userSpaceOnUse">
<stop stop-color="#00CDC2"/>
<stop offset="1" stop-color="#288822"/>
</linearGradient>
<linearGradient id="paint13_linear_15575_12857" x1="237.706" y1="6.85168" x2="244.329" y2="26.0864" gradientUnits="userSpaceOnUse">
<stop stop-color="#00CDC2"/>
<stop offset="1" stop-color="#288822"/>
</linearGradient>
<linearGradient id="paint14_linear_15575_12857" x1="237.612" y1="6.78153" x2="244.088" y2="25.5888" gradientUnits="userSpaceOnUse">
<stop stop-color="#00CDC3"/>
<stop offset="1" stop-color="#4FDB5E"/>
</linearGradient>
<radialGradient id="paint15_radial_15575_12857" cx="0" cy="0" r="1" gradientUnits="userSpaceOnUse" gradientTransform="translate(257.757 19.069) scale(16.6625)">
<stop stop-color="white"/>
<stop offset="1" stop-color="white" stop-opacity="0"/>
</radialGradient>
<radialGradient id="paint16_radial_15575_12857" cx="0" cy="0" r="1" gradientUnits="userSpaceOnUse" gradientTransform="translate(259.358 17.7047) rotate(96.4105) scale(6.90389 0.671812)">
<stop stop-color="white"/>
<stop offset="1" stop-color="white" stop-opacity="0"/>
</radialGradient>
<linearGradient id="paint17_linear_15575_12857" x1="239.032" y1="12.7673" x2="245.049" y2="27.7963" gradientUnits="userSpaceOnUse">
<stop stop-color="#00CDC3"/>
<stop offset="1" stop-color="#4FDB5E"/>
</linearGradient>
<radialGradient id="paint18_radial_15575_12857" cx="0" cy="0" r="1" gradientUnits="userSpaceOnUse" gradientTransform="translate(276.663 12.9962) scale(10.7533)">
<stop stop-color="#88D2FF"/>
<stop offset="1" stop-color="#0079FF"/>
</radialGradient>
<radialGradient id="paint19_radial_15575_12857" cx="0" cy="0" r="1" gradientUnits="userSpaceOnUse" gradientTransform="translate(272.291 12.9962) scale(15.2378)">
<stop stop-color="#88D2FF"/>
<stop offset="1" stop-color="#0079FF"/>
</radialGradient>
<linearGradient id="paint20_linear_15575_12857" x1="267.649" y1="15.8731" x2="280.904" y2="10.0931" gradientUnits="userSpaceOnUse">
<stop offset="0.04" stop-color="#62C7FF"/>
<stop offset="0.79" stop-color="#D9B5FF"/>
</linearGradient>
<linearGradient id="paint21_linear_15575_12857" x1="272.055" y1="13.2491" x2="283.078" y2="17.4849" gradientUnits="userSpaceOnUse">
<stop stop-color="#C07DFF" stop-opacity="0"/>
<stop offset="1" stop-color="#A855F5"/>
</linearGradient>
<radialGradient id="paint22_radial_15575_12857" cx="0" cy="0" r="1" gradientUnits="userSpaceOnUse" gradientTransform="translate(262.755 9.35307) rotate(61.8392) scale(6.40495 0.801323)">
<stop stop-color="#0079FF"/>
<stop offset="1" stop-color="#0079FF"/>
</radialGradient>
<radialGradient id="paint23_radial_15575_12857" cx="0" cy="0" r="1" gradientUnits="userSpaceOnUse" gradientTransform="translate(261.326 7.42286) rotate(64.3033) scale(7.07181 0.423558)">
<stop stop-color="#0079FF"/>
<stop offset="1" stop-color="#0079FF" stop-opacity="0"/>
</radialGradient>
<linearGradient id="paint24_linear_15575_12857" x1="274.769" y1="20.6203" x2="290.025" y2="24.7121" gradientUnits="userSpaceOnUse">
<stop stop-color="#0079FF"/>
<stop offset="1" stop-color="#0079FF" stop-opacity="0.5"/>
</linearGradient>
<radialGradient id="paint25_radial_15575_12857" cx="0" cy="0" r="1" gradientUnits="userSpaceOnUse" gradientTransform="translate(281.515 22.3635) rotate(13.66) scale(8.76502 0.1753)">
<stop stop-color="#CDA2FD"/>
<stop offset="1" stop-color="#0079FF" stop-opacity="0"/>
</radialGradient>
<radialGradient id="paint26_radial_15575_12857" cx="0" cy="0" r="1" gradientUnits="userSpaceOnUse" gradientTransform="translate(273.16 20.1964) rotate(20.2248) scale(3.05657 0.519617)">
<stop offset="0.114841" stop-color="white"/>
<stop offset="1" stop-color="white" stop-opacity="0"/>
</radialGradient>
<radialGradient id="paint27_radial_15575_12857" cx="0" cy="0" r="1" gradientUnits="userSpaceOnUse" gradientTransform="translate(266.443 13.9333) rotate(33.2544) scale(4.35307 1.23986)">
<stop stop-color="white"/>
<stop offset="1" stop-color="white" stop-opacity="0"/>
</radialGradient>
<radialGradient id="paint28_radial_15575_12857" cx="0" cy="0" r="1" gradientUnits="userSpaceOnUse" gradientTransform="translate(273.16 20.1964) rotate(20.2248) scale(3.05657 0.519617)">
<stop offset="0.114841" stop-color="white"/>
<stop offset="1" stop-color="white" stop-opacity="0"/>
</radialGradient>
<radialGradient id="paint29_radial_15575_12857" cx="0" cy="0" r="1" gradientUnits="userSpaceOnUse" gradientTransform="translate(281.198 22.9186) rotate(13.8887) scale(9.2162 0.385511)">
<stop stop-color="#0079FF"/>
<stop offset="1" stop-color="#0079FF" stop-opacity="0"/>
</radialGradient>
<linearGradient id="paint30_linear_15575_12857" x1="258.452" y1="12.9963" x2="290.67" y2="12.9963" gradientUnits="userSpaceOnUse">
<stop stop-color="#88D2FF"/>
<stop offset="1" stop-color="#F6B6FF"/>
</linearGradient>
<linearGradient id="paint31_linear_15575_12857" x1="268.095" y1="17.7472" x2="274.51" y2="12.046" gradientUnits="userSpaceOnUse">
<stop stop-color="#0079FF"/>
<stop offset="1" stop-color="#0079FF" stop-opacity="0"/>
</linearGradient>
<linearGradient id="paint32_linear_15575_12857" x1="258.443" y1="13.077" x2="290.888" y2="13.077" gradientUnits="userSpaceOnUse">
<stop stop-color="#88D2FF"/>
<stop offset="1" stop-color="#F6B6FF"/>
</linearGradient>
<clipPath id="clip0_15575_12857">
<rect width="293.39" height="66.9012" fill="white"/>
</clipPath>
</defs>
</svg>
