<?xml version="1.0" encoding="UTF-8"?><svg id="Layer_1" xmlns="http://www.w3.org/2000/svg" width="119" height="32" viewBox="0 0 119 32">
<title>Kling_AI-logo - brandlogos.net</title><path d="M26.17,4.46l.11.11h0c2.04,2.05,1.45,6.16-1.5,10.83l5.82,5.82-.25.49c-.98,1.91-2.3,3.62-3.91,5.04-2.11,1.89-4.66,3.21-7.41,3.86l-.1.02-.14.03-.1.02h0l-.23.05-.19.04-.14.03c-.15.03-.31.06-.46.08l-.13.02h-.1c-.14.03-.28.05-.41.06-4.64.52-9.28-1.08-12.6-4.36l-.1-.09c-2.04-2.05-1.47-6.17,1.5-10.83L0,9.85l.25-.49c.98-1.91,2.3-3.62,3.91-5.04,1.64-1.46,3.55-2.59,5.62-3.33.48-.17.98-.32,1.48-.45.41-.11.82-.2,1.23-.27.14-.03.3-.06.45-.08,4.84-.75,9.75.83,13.24,4.27M24.2,4.71h0,0c-1.98-.61-5.11.38-8.43,2.57,2.52-.7,4.96-.34,6.54,1.24,1.49,1.5,1.9,3.77,1.34,6.16-.03.13-.06.26-.1.39,2.71-4.09,3.57-7.93,1.86-9.64-.03-.03-.06-.06-.09-.09h-.01s-.02-.03-.02-.03l-.06-.04s-.05-.04-.08-.06l-.04-.03c-.27-.2-.58-.36-.91-.46M22.84,13.91c-.35,2.08-1.5,4.19-3.25,5.93-1.74,1.74-3.85,2.9-5.93,3.25-1.95.33-3.63-.1-4.74-1.2-1.1-1.1-1.53-2.78-1.2-4.74.35-2.08,1.5-4.18,3.23-5.93,0,0,0,0,.01-.01h0c1.74-1.74,3.84-2.89,5.92-3.24,1.95-.33,3.63.1,4.74,1.2,1.1,1.1,1.53,2.78,1.2,4.74h0ZM5.16,5.45c-1.33,1.17-2.45,2.57-3.31,4.12h0s5.05,5.04,5.05,5.04c.41-.58.85-1.15,1.32-1.72.16-.2.33-.4.51-.6l.07-.07.24-.27s.01-.02.01-.02l.04-.05.02-.03.03-.04.09-.1c.06-.07.13-.14.19-.21,0,0,.01-.02.01-.02l.11-.12.08-.08s0,0,0,0c0,0,0,0,0-.01v-.02s.03-.02.03-.02c.01,0,.02-.02.03-.03l.02-.02s.09-.09.13-.14c.02-.03.05-.06.08-.09l.04-.04s.03-.03.03-.03l.08-.08.15-.15.05-.05.06-.06c1.08-1.08,2.24-2.09,3.46-3.02l.16-.12h0s0,0,0,0l.16-.12c.18-.13.36-.27.54-.39.19-.13.39-.26.58-.39,2.62-1.75,5.19-2.8,7.29-3.01-2.8-1.69-6.11-2.34-9.35-1.84-.14.02-.27.04-.42.07-.09.02-.17.03-.25.05h-.05c-.74.16-1.46.36-2.16.62-1.89.68-3.62,1.71-5.12,3.04M5.44,25.86c.28.21.6.38.96.49h0c1.99.61,5.11-.38,8.42-2.56-2.52.7-4.95.34-6.53-1.24-1.49-1.49-1.9-3.77-1.33-6.16.03-.13.06-.26.1-.39-2.71,4.1-3.57,7.93-1.86,9.64.04.04.08.08.12.11.04.04.09.07.13.11M28.73,21.49h0c-.86,1.55-1.98,2.94-3.31,4.12-1.98,1.76-4.38,2.99-6.97,3.58h-.03s-.09.03-.09.03c-.1.03-.2.05-.3.06-.06.01-.13.03-.2.04-.14.03-.28.05-.42.07l-.12.02-.13.02c-.11.01-.22.03-.33.04-3.05.34-6.13-.33-8.77-1.91,2.02-.2,4.48-1.18,6.99-2.81l.14-.09.14-.09.2-.13h0s.38-.26.38-.26c.18-.13.36-.26.54-.39.11-.08.22-.16.33-.24,1.22-.93,2.37-1.94,3.46-3.02.03-.03.05-.05.07-.08l.03-.03c.05-.05.1-.1.15-.15l.08-.08s.02-.02.02-.03c.01,0,.02-.02.03-.03h.01s.09-.1.09-.1l.07-.07s.05-.04.07-.07l.02-.02s.02-.02.03-.03v-.02s.03-.02.03-.02c0,0,.01-.01.02-.01l.03-.03.03-.03.03-.02s-.05.06-.08.09l.06-.07h0s.09-.09.13-.14c.06-.06,0-.01.01-.01.06-.06.12-.13.17-.19l.11-.13s.03-.02.03-.04l.06-.08.02-.02c.08-.08.15-.17.23-.25l.08-.09c.13-.15.25-.29.37-.44l.15-.18.05-.06c.06-.08.12-.15.18-.22.05-.06.1-.12.15-.18.03-.04.06-.08.09-.12.29-.37.57-.74.84-1.12l5.03,5.03ZM28.73,21.49s0,0,0,0v.02h0s0,0,0,0h0ZM38.95,6.36h2.87v18.05h-2.87V6.36ZM58,6.36h-2.68v18.05h2.68V6.36ZM116.32,6.36h2.68v18.05h-2.68V6.36ZM104,6.36l-6.93,18.05h2.96l1.74-4.59h8.32l1.74,4.59h2.96l-6.93-18.05h-3.85M102.78,17.14l3.14-8.27,3.14,8.27h-6.28ZM60.31,9.99h2.68v14.41h-2.68v-14.41ZM62.99,6.36h-2.68v2.27h2.68v-2.27ZM67.98,11.72c.86-.96,2.6-1.73,4.32-1.73,4.76,0,6.88,3.12,6.88,6.94v7.48h-2.68v-7.48c0-2.35-1.27-4.26-4.26-4.26-2.17,0-4.12,1.19-4.26,3.61v8.12h-2.68v-14.41h2.68v1.73ZM88.2,9.99c1.74,0,3.34.64,4.59,1.72v-1.72h2.68v15.01c0,3.86-3.03,7-6.75,7h-.75c-3.27,0-6-2.42-6.61-5.64h2.76c.54,1.72,2.06,2.95,3.86,2.95h.75c2.25,0,4.07-1.93,4.07-4.32v-1.47c-1.26,1.08-2.86,1.72-4.6,1.72-4.01,0-7.28-3.42-7.28-7.63s3.26-7.63,7.28-7.63M88.2,22.57c-2.54,0-4.6-2.22-4.6-4.95s2.06-4.95,4.6-4.95,4.6,2.22,4.6,4.95-2.06,4.95-4.6,4.95M49.86,6.36h3.57l-7.97,8.91,8.51,9.14h-3.69l-8.44-9.14,8.04-8.91Z" style="fill-rule:evenodd;"/></svg>