<?xml version="1.0" encoding="UTF-8" standalone="no"?>
<!-- Created with Inkscape (http://www.inkscape.org/) -->

<svg
   version="1.1"
   id="svg1"
   width="1365.3333"
   height="1365.3333"
   viewBox="0 0 1365.3333 1365.3333"
   xmlns="http://www.w3.org/2000/svg"
   xmlns:svg="http://www.w3.org/2000/svg">
  <defs
     id="defs1" />
  <g
     id="g1">
    <path
       style="fill:#000000"
       d="m 337.32159,770.09923 c -28.38929,-1.7539 -66.49309,-9.9743 -90.66666,-19.5601 -20.087,-7.9654 -60.48812,-29.0232 -58.84184,-30.6695 0.3188,-0.3188 8.07101,1.8153 17.22713,4.7424 32.7825,10.4804 62.6024,14.5005 96.55546,13.017 85.45812,-3.734 164.65815,-35.8188 236.90963,-95.97492 28.16709,-23.4518 48.66544,-44.7589 70.27193,-73.0445 11.25433,-14.7334 30.25097,-44.1034 37.211,-57.5306 3.3,-6.3664 6.39399,-11.5823 6.87555,-11.591 1.33698,-0.024 50.87794,22.8504 52.87684,24.4148 2.5156,1.9689 1.2019,6.005 -7.7644,23.855 -33.80085,67.2906 -90.55338,127.7508 -157.98799,168.30952 -67.66203,40.6954 -133.67286,58.2942 -202.66665,54.0319 z M 698.65483,528.80551 c 0.4533,-0.7333 -0.4113,-1.3333 -1.9213,-1.3333 -1.5099,0 -2.7453,0.6 -2.7453,1.3333 0,0.7334 0.8646,1.3334 1.9213,1.3334 1.0567,0 2.2921,-0.6 2.7453,-1.3334 z M 225.45048,707.37023 c -27.22988,-3.74 -53.15049,-11.005 -74.07137,-20.7606 -34.70364,-16.18282 -69.621502,-48.16752 -92.032792,-84.30192 -10.8294,-17.4606 -30.44338,-58.1946 -28.80863,-59.8294 0.29974,-0.2997 3.10421,3.2513 6.23213,7.8911 19.5549,29.0071 49.82442,57.4794 79.774162,75.0377 39.50437,23.1599 86.78424,32.9474 135.59856,28.0706 48.73574,-4.8689 90.76134,-17.1236 135.50853,-39.5143 55.33872,-27.6907 97.38679,-60.8638 132.39236,-104.449 12.15932,-15.1395 28.61693,-38.6218 34.25201,-48.872 2.36958,-4.3103 4.67402,-7.8369 5.12097,-7.8369 0.44695,0 12.15846,5.3021 26.02557,11.7825 23.15218,10.8194 25.18361,12.0454 24.85427,15 -0.50879,4.5646 -21.43055,38.8446 -33.96612,55.653 -16.05155,21.5229 -27.40944,34.386 -47.53913,53.8393 -62.86061,60.7486 -143.04777,102.64562 -222.80274,116.41242 -15.02171,2.593 -66.57815,3.7949 -80.53778,1.8775 z M 601.32157,480.80551 c 0.45323,-0.7333 -0.076,-1.3333 -1.17595,-1.3333 -1.1,0 -2.37082,0.6 -2.82405,1.3333 -0.45322,0.7334 0.076,1.3334 1.17596,1.3334 1.1,0 2.37082,-0.6 2.82404,-1.3334 z m -412.66663,132.026 c -44.92309,-5.8206 -81.56295,-21.5136 -110.666662,-47.3987 -44.1723,-39.2873 -73.02615,-105.2553 -77.25519,-176.6273 -5.50473,-92.9011 20.0117,-176.33965 75.87179,-248.10029 C 114.68642,91.783786 166.79774,50.949426 213.68538,33.289136 c 10.16529,-3.82878 11.28142,-3.88861 6.96956,-0.37366 l -3.33334,2.71728 4.37236,-2.13468 c 2.87701,-1.40462 -3.05524,5.29392 -17.34581,19.58641 -22.14754,22.15051 -35.11081,37.77744 -53.96569,65.054424 -41.66649,60.27806 -65.594162,116.33477 -77.061302,180.5359 -17.55379,98.2784 5.59684,198.8858 55.583572,241.5537 6.05042,5.1646 25.78451,14.9872 27.22198,13.5497 0.30018,-0.3002 -2.70391,-7.3918 -6.67574,-15.7592 -33.27506,-70.1 -44.91955,-130.2755 -39.45261,-203.8801 6.45609,-86.92227 40.55529,-171.38081 98.23874,-243.322504 38.53426,-48.05919 77.08653,-77.21443 114.50659,-86.5958598 19.4577,-4.87815996 58.4179,-5.63519 87.91123,-1.7082 11.60031,1.54456 11.80015,1.6285 6,2.52028 -4.1323,0.63534 -2.74319,0.77255 4.4625,0.44078 5.75438,-0.26495 10.09118,-0.11041 9.63734,0.34343 -0.45384,0.45384 -7.27742,2.47169 -15.16352,4.4840998 -31.36291,8.00334 -62.29388,23.35424 -92.93887,46.12514 -21.10683,15.68353 -57.09935,51.083084 -71.65333,70.472854 -56.55256,75.34306 -85.06496,158.00798 -84.99867,246.43358 0.0235,31.3665 6.33006,69.898 16.75699,102.3812 8.34001,25.9818 20.10063,52.9762 32.21329,73.9397 5.37984,9.311 1.93958,8.6321 28.73086,5.67 7.90895,-0.8745 14.66112,-2.0449 15.00482,-2.601 0.34371,-0.5562 -2.94199,-7.815 -7.30155,-16.1307 -37.82789,-72.1557 -50.26681,-147.1922 -37.98144,-229.1195 15.02652,-100.20711 77.48089,-196.4801 164.56491,-253.675644 26.34412,-17.30244 62.25939,-32.88007 85.62182,-37.137 7.14621,-1.30213 10.5129,-1.28888 16.66667,0.0656 39.90872,8.78392 94.4376,36.85349 134.90684,69.44535 17.89344,14.410474 41.24798,36.940244 51.60908,49.786484 9.3072,11.53953 28.52887,39.76072 28.52887,41.8859 0,0.69836 -10.31697,7.44932 -22.92661,15.00214 -20.80532,12.46178 -23.05681,13.50995 -24.33333,11.32827 -5.55296,-9.4904 -25.60964,-36.02482 -35.91767,-47.51805 C 578.54393,119.192 530.08833,86.389436 487.27377,72.123016 l -14.77911,-4.92461 -9.70322,2.28507 c -5.33677,1.25679 -17.45071,5.10266 -26.91987,8.54638 -13.53198,4.92128 -17.21665,6.78464 -17.21665,8.70655 0,1.34488 1.07519,3.11063 2.38932,3.92389 1.94723,1.20506 2.83348,0.89476 4.78985,-1.67706 l 2.40052,-3.1557 7.87682,2.27516 c 11.0075,3.17943 35.07121,13.150694 48.54348,20.114924 47.2608,24.43058 89.16981,64.33743 118.44351,112.78499 l 2.9388,4.86367 -23.27664,13.46966 c -12.80214,7.40832 -23.56841,13.46967 -23.92503,13.46967 -0.35663,0 -4.62413,-5.70236 -9.48334,-12.67191 -41.45036,-59.45208 -102.9269,-103.93847 -167.663,-121.32632 l -11.63238,-3.1244 -15.89468,15.22798 c -8.74208,8.37539 -16.85751,15.22798 -18.03429,15.22798 -2.6667,0 -2.71309,1.40861 -0.15628,4.74516 1.94406,2.53693 2.03271,2.52514 4.47773,-0.59566 2.83256,-3.61544 5.59239,-3.4497 21.8275,1.31085 56.1611,16.46788 109.19686,57.51994 142.69558,110.45282 l 7.65081,12.0894 -25.30415,12.6654 c -13.91728,6.9659 -25.80507,12.6654 -26.41732,12.6654 -0.61225,0 -4.46064,-4.65 -8.55198,-10.3334 -26.19983,-36.3945 -63.41724,-65.93149 -102.77609,-81.5665 -10.41886,-4.13882 -31.16024,-9.99082 -40.619,-11.46031 l -5.70026,-0.88557 -5.97995,12.79674 c -24.49827,52.42484 -36.62693,104.59674 -36.60293,157.44894 0.0183,40.2423 6.38537,77.5321 19.44215,113.8656 4.73748,13.1831 21.3762,47.7375 25.63089,53.2288 l 2.39753,3.0944 15.92308,-6.8289 c 28.00926,-12.0122 50.05086,-25.1863 69.59865,-41.5987 18.19811,-15.2792 41.82532,-43.2575 58.34913,-69.0945 3.51747,-5.5 6.57662,-10.2257 6.7981,-10.5016 0.42558,-0.5302 31.79023,13.4816 44.92998,20.0718 l 7.75279,3.8885 -5.60829,10.2706 c -12.28419,22.4965 -32.87998,50.8351 -50.76665,69.8519 -22.34986,23.762 -59.63984,50.9485 -92.46396,67.4115 -30.95595,15.526 -58.39807,24.7811 -92.66666,31.2526 -15.69523,2.964 -65.72701,4.4695 -81.33332,2.4474 z m 24.76101,-54.1248 c -0.47377,-1.8876 -3.86337,-8.7119 -7.53244,-15.1651 -13.93948,-24.5167 -29.18061,-62.1918 -37.78526,-93.4027 -5.87051,-21.2936 -6.32224,-22.5456 -5.29192,-14.6667 1.52409,11.6548 11.01768,46.3258 17.17531,62.725 6.90724,18.3955 24.07956,54.5614 28.61981,60.275 3.69623,4.6514 5.95063,4.7612 4.8145,0.2345 z m -97.17823,-21.4777 c -10.41755,-12.8936 -21.265262,-30.5228 -30.206442,-49.0901 -8.9377,-18.5601 -11.90902,-26.2938 -18.18586,-47.3334 -5.45187,-18.2744 -4.76313,-10.0775 1.00655,11.9792 6.91318,26.428 15.62956,46.5816 28.69352,66.3436 7.123422,10.7757 23.936922,29.2942 25.331182,27.8999 0.38892,-0.3889 -2.59861,-4.7985 -6.63895,-9.7992 z m 184.75589,-2.0915 c -0.40936,-1.6492 -1.77951,-4.4986 -3.04476,-6.332 -3.55831,-5.1559 -18.08541,-34.6472 -23.13017,-46.9563 -6.1658,-15.0444 -11.2114,-30.0479 -14.92373,-44.377 -4.14047,-15.9817 -4.07429,-10.4682 0.096,8 7.36228,32.6036 23.50032,72.5164 36.26525,89.6916 3.52876,4.748 5.9191,4.7347 4.73738,-0.026 z m 200.32797,-100.9986 c 0.45322,-0.7334 -0.076,-1.3334 -1.17596,-1.3334 -1.1,0 -2.37082,0.6 -2.82404,1.3334 -0.45323,0.7333 0.076,1.3333 1.17595,1.3333 1.1,0 2.37082,-0.6 2.82405,-1.3333 z m -0.13935,-166.4412 c 1.77741,-2.8759 -19.47245,-29.87683 -34.87086,-44.30831 -18.21434,-17.0706 -24.15703,-20.05103 -8.30853,-4.16697 12.70307,12.73158 30.33446,34.52918 36.84654,45.55328 2.32355,3.9335 4.95682,5.1485 6.33285,2.922 z m 94.10751,-48.55881 c -0.0175,-0.91667 -4.06751,-7.36667 -9,-14.33333 -9.07322,-12.81505 -41.05071,-46.32548 -49.63483,-52.01424 -2.5729,-1.70507 1.96855,3.7361 10.12212,12.12747 15.7276,16.1863 27.3292,30.25431 38.0399,46.12687 5.98125,8.86383 10.55503,12.39838 10.47281,8.09323 z m 90.42152,-47.80353 c -0.2143,-0.6279 -4.2852,-6.70398 -9.0465,-13.50239 -9.60962,-13.72137 -38.48723,-43.44997 -52.00986,-53.54257 -7.63177,-5.695974 -6.95077,-4.839384 5.703,7.17344 16.23855,15.41602 31.88791,33.63646 43.68996,50.86796 5.6832,8.29766 8.5982,11.47095 10.032,10.92076 1.1116,-0.42656 1.8457,-1.28929 1.6314,-1.9172 z M 396.98825,7.9225362 c -0.91667,-0.36989 -2.41667,-0.36989 -3.33333,0 -0.91667,0.36988 -0.16667,0.67251 1.66666,0.67251 1.83334,0 2.58334,-0.30263 1.66667,-0.67251 z m 10,-1.3694 c -1.28333,-0.33537 -3.38333,-0.33537 -4.66667,0 -1.28333,0.33537 -0.23333,0.60977 2.33334,0.60977 2.56666,0 3.61666,-0.2744 2.33333,-0.60977 z"
       id="path1" />
  </g>
</svg>
