<?xml version="1.0" encoding="UTF-8" standalone="no"?>
<!-- Created with Inkscape (http://www.inkscape.org/) -->

<svg
   version="1.1"
   id="svg1"
   width="672"
   height="672"
   viewBox="0 0 672 672"
   xmlns="http://www.w3.org/2000/svg"
   xmlns:svg="http://www.w3.org/2000/svg">
  <defs
     id="defs1" />
  <g
     id="g1">
    <path
       style="fill:#c5c5c5;stroke:none"
       d="m 265.75835,242.36734 c -0.22697,4.95562 -3.50398,10.16465 -5.3042,14.72 -4.04228,10.22879 -7.92742,20.52222 -12.06963,30.72 -12.70715,31.28383 -24.71931,62.87898 -37.65357,94.08 -3.25821,7.85969 -6.33613,15.77832 -9.47803,23.68 -1.58037,3.97453 -3.70418,7.92 -4.49457,12.16 -0.79445,4.26183 2.33428,8.4089 6.28,9.68 5.36918,1.72969 9.60654,-1.39219 12.22049,-5.84 5.684,-9.67164 11.1725,-19.4702 16.89951,-29.12 16.96461,-28.58469 33.70897,-57.31703 50.36346,-86.08 4.92943,-8.51332 9.71404,-17.13039 14.72543,-25.6 1.89457,-3.20195 3.70933,-8.22606 6.59111,-10.56 l 0.32,0.32 c -1.15123,4.83789 0.51379,10.47574 0.63531,15.36 0.37824,15.20183 2.18405,30.28312 2.87209,45.44 2.08344,45.89582 5.62033,91.67832 7.70518,137.6 0.34773,7.65937 1.39125,15.34801 1.59211,23.04 0.33359,12.775 1.2273,25.98375 2.50074,38.72 0.42687,4.26914 -0.33957,8.91633 0.49582,13.12 1.38684,6.97851 9.6548,10.44265 15.55406,6.3284 5.67934,-3.9609 3.87067,-12.18989 4.57606,-18.1684 0.81222,-6.88379 0.71027,-13.87992 1.21754,-20.8 0.85007,-11.59672 1.93035,-23.22789 2.21578,-34.88 0.3841,-15.68125 1.59234,-31.4493 2.84543,-47.04 2.43043,-30.23942 3.0109,-60.65731 5.44,-90.88 1.38566,-17.24028 1.67144,-34.57621 2.88125,-51.84 0.36945,-5.2718 -0.5561,-11.1761 0.66863,-16.32 h 0.64 c 8.34883,17.06597 19.29094,33.18488 28.86023,49.6 14.86012,25.49094 29.45313,51.16285 44.61188,76.48 3.73082,6.23094 7.44609,12.52023 10.95184,18.88 1.78195,3.23258 3.46433,7.62859 6.16593,10.17976 4.375,4.13125 12.64594,2.80102 15.11137,-2.81976 2.27176,-5.17922 -1.01996,-10.50289 -2.92816,-15.36 -4.2777,-10.88828 -8.53922,-21.77547 -12.88496,-32.64 -12.06977,-30.17485 -23.77762,-60.53555 -36.18915,-90.56 -3.51421,-8.50113 -6.74398,-17.12922 -10.31925,-25.6 -2.10301,-4.98258 -5.51977,-10.61949 -6.25973,-16 4.19262,1.61219 8.21484,5.39426 11.84,8.02594 7.07793,5.13824 14.28727,10.11972 21.44,15.15183 25.36305,17.84344 50.39898,36.17938 75.84,53.89754 8.48766,5.91117 16.96113,11.91488 25.28,18.05629 3.96133,2.92445 8.16363,6.53469 13.44,4.6032 6.72594,-2.46211 8.01453,-10.7641 3.39875,-15.83578 -3.47691,-3.82035 -7.71793,-7.2582 -11.39875,-10.93902 -9.0216,-9.0216 -17.95914,-18.15899 -27.16766,-26.97406 -44.05726,-42.17481 -85.70129,-86.96469 -129.32023,-129.53457 -9.81527,-9.57922 -19.41371,-19.39297 -29.11211,-29.09137 -5.98246,-5.98246 -10.39539,-11.81442 -19.52,-11.17137 -7.88719,0.55586 -14.35109,9.60375 -19.3232,14.92 -12.40848,13.26738 -25.76002,25.65461 -38.5968,38.49137 l -122.24,122.24 c -9.32953,9.32953 -18.37995,19.12168 -28.18864,27.94394 -4.08069,3.67032 -9.29847,8.2009 -6.66149,14.29606 0.53901,1.24586 1.23852,2.40789 2.24347,3.32988 8.23239,7.55277 17.25456,-3.04332 23.96666,-7.39113 23.02348,-14.9136 44.71754,-32.1061 67.2,-47.84297 19.82113,-13.87402 40.54686,-27.16856 59.52,-42.17578 z"
       id="path6" />
    <path
       style="fill:#000000"
       id="path5" />
    <path
       style="fill:#000000"
       id="path4" />
    <path
       style="fill:#000000"
       id="path3" />
    <path
       style="fill:#000000"
       id="path2" />
    <path
       style="fill:#000000"
       id="path1" />
  </g>
</svg>
